<?xml version="1.0" standalone="no"?>
<!DOCTYPE svg PUBLIC "-//W3C//DTD SVG 20010904//EN"
 "http://www.w3.org/TR/2001/REC-SVG-20010904/DTD/svg10.dtd">
<svg version="1.0" xmlns="http://www.w3.org/2000/svg"
 width="1796.000000pt" height="1796.000000pt" viewBox="0 0 1796.000000 1796.000000"
 preserveAspectRatio="xMidYMid meet">
<metadata>
Created by potrace 1.14, written by Peter Selinger 2001-2017
</metadata>
<g transform="translate(0.000000,1796.000000) scale(0.100000,-0.100000)"
fill="#000000" stroke="none">
<path d="M8520 17949 c-2230 -115 -4311 -1040 -5890 -2619 -1496 -1496 -2412
-3455 -2595 -5550 -144 -1656 159 -3288 883 -4760 1266 -2571 3691 -4393 6502
-4884 1770 -309 3625 -79 5237 650 847 383 1651 906 2323 1512 149 135 499
483 639 637 1727 1893 2555 4419 2290 6985 -147 1425 -628 2776 -1417 3980
-1436 2192 -3765 3654 -6344 3984 -530 68 -1115 91 -1628 65z m-111 -5018
c169 -43 322 -132 442 -257 135 -142 209 -291 262 -524 21 -94 21 -113 25
-1380 2 -897 0 -1318 -8 -1394 -58 -567 -337 -901 -821 -982 -124 -20 -382
-15 -499 11 -374 83 -614 337 -710 749 -44 191 -45 216 -45 1566 0 1200 1
1292 18 1390 74 423 307 697 686 806 130 37 190 43 386 39 142 -2 198 -7 264
-24z m-4359 -73 c0 -7 68 -598 150 -1313 157 -1355 175 -1527 186 -1763 4 -78
8 -141 9 -140 2 2 8 98 14 213 20 368 28 437 201 1727 94 697 170 1272 170
1278 0 7 95 10 290 10 l289 0 6 -32 c12 -69 356 -2559 370 -2678 8 -69 19
-212 25 -319 9 -192 20 -264 20 -140 0 194 46 677 176 1844 79 714 144 1305
144 1312 0 10 66 13 320 13 283 0 320 -2 320 -16 0 -15 -666 -4305 -676 -4356
l-6 -28 -284 0 c-156 0 -284 2 -284 4 0 3 -83 578 -185 1278 -102 700 -192
1332 -201 1403 -8 72 -17 226 -21 343 -3 117 -7 211 -9 209 -1 -1 -10 -124
-18 -272 -25 -419 -26 -427 -216 -1726 -99 -675 -180 -1230 -180 -1233 0 -3
-128 -6 -285 -6 -157 0 -285 4 -285 8 0 4 -155 992 -345 2196 -190 1203 -345
2190 -345 2192 0 2 146 4 325 4 253 0 325 -3 325 -12z m6875 2 c279 -31 462
-112 608 -270 119 -129 199 -322 244 -588 26 -157 26 -652 -1 -802 -49 -282
-152 -481 -322 -623 -38 -32 -70 -62 -72 -66 -2 -5 108 -461 243 -1015 135
-553 245 -1010 245 -1016 0 -7 -119 -10 -349 -10 l-349 0 -21 93 c-12 50 -106
466 -210 922 l-188 830 -162 3 -161 2 0 -925 0 -925 -340 0 -340 0 0 2200 0
2200 543 0 c298 0 583 -5 632 -10z m2107 -907 l3 -918 38 115 c20 63 191 475
380 915 l342 800 339 3 c186 1 336 -1 334 -5 -2 -5 -171 -343 -377 -753 l-373
-744 417 -1436 c230 -789 420 -1441 422 -1447 4 -10 -70 -13 -349 -13 l-355 0
-121 468 c-66 257 -194 752 -284 1099 -90 348 -165 633 -168 633 -3 0 -60
-110 -128 -245 l-122 -245 0 -855 0 -855 -340 0 -340 0 0 2200 0 2200 340 0
340 0 2 -917z m-8599 -3667 c288 -55 454 -322 434 -700 -13 -251 -86 -427
-321 -776 -50 -74 -99 -146 -109 -161 -17 -26 -17 -27 42 -145 54 -111 169
-316 238 -428 l31 -49 25 49 c38 76 91 235 122 367 15 64 32 117 37 117 10 0
234 -58 336 -87 62 -17 61 -15 32 -159 -33 -160 -89 -318 -177 -493 -60 -122
-79 -169 -73 -182 18 -33 121 -118 175 -144 l55 -27 0 -235 0 -234 -47 7
c-144 20 -281 87 -395 193 l-68 63 -74 -70 c-85 -80 -169 -131 -276 -164 -63
-19 -96 -23 -205 -22 -112 1 -141 4 -211 27 -104 34 -184 87 -261 171 -121
133 -181 290 -190 506 -12 274 75 524 283 814 49 70 83 126 81 135 -3 9 -30
82 -61 162 -110 289 -151 509 -143 764 6 185 24 262 90 389 127 245 365 362
630 312z m7811 -11 c237 -67 405 -242 478 -501 l23 -79 3 -980 c3 -1057 3
-1074 -49 -1230 -85 -254 -249 -404 -502 -460 -121 -27 -353 -17 -462 18 -269
89 -420 297 -465 640 -7 55 -10 400 -8 1047 3 959 3 966 25 1043 82 288 276
464 571 517 75 14 318 4 386 -15z m-4394 -270 l0 -225 -395 0 -395 0 0 -415 0
-415 285 0 285 0 0 -230 0 -230 -285 0 -285 0 0 -475 0 -475 395 0 395 0 0
-235 0 -235 -635 0 -635 0 0 1580 0 1580 635 0 635 0 0 -225z m1131 -746 c174
-531 331 -1020 349 -1087 19 -67 35 -120 37 -118 2 1 -7 63 -19 137 -21 130
-22 163 -25 1087 l-4 952 230 0 231 0 0 -1580 0 -1580 -227 0 -228 0 -322 948
c-177 521 -332 982 -345 1024 -12 43 -23 76 -25 74 -2 -1 7 -65 19 -142 21
-134 22 -173 25 -1021 l4 -883 -226 0 -225 0 0 1580 0 1580 217 -2 217 -3 317
-966z m1856 -316 c-3 -1266 -3 -1290 -24 -1378 -52 -226 -129 -350 -264 -428
-84 -49 -140 -59 -351 -64 l-198 -6 0 244 0 244 98 0 c81 0 104 4 140 23 54
29 98 89 111 153 8 34 11 441 11 1274 l0 1225 240 0 241 0 -4 -1287z m2561
1255 c5 -18 76 -302 158 -630 123 -496 152 -598 166 -598 9 0 19 8 22 18 3 9
66 274 141 587 75 314 141 589 147 613 l10 42 244 0 c134 0 244 -2 244 -5 0
-3 -126 -415 -280 -915 l-280 -911 0 -664 0 -665 -245 0 -245 0 0 631 0 632
-286 936 c-158 515 -289 942 -291 949 -4 9 48 12 240 12 l246 0 9 -32z"/>
<path d="M7985 12337 c-121 -40 -182 -111 -223 -260 -16 -57 -17 -163 -17
-1407 0 -1261 1 -1349 18 -1410 37 -134 89 -204 186 -248 77 -36 211 -37 286
-3 97 43 160 128 190 253 22 95 22 2722 0 2816 -29 121 -89 204 -178 243 -64
28 -200 36 -262 16z"/>
<path d="M10430 11595 l0 -637 203 4 202 3 67 33 c149 73 196 199 205 554 11
420 -44 573 -237 653 -37 16 -78 20 -242 23 l-198 4 0 -637z"/>
<path d="M4230 7948 c-42 -29 -72 -72 -101 -146 -34 -87 -39 -309 -9 -452 20
-98 89 -303 109 -323 22 -22 185 284 222 416 19 67 24 107 24 212 0 127 -1
132 -33 197 -38 77 -75 109 -135 115 -33 4 -50 -1 -77 -19z"/>
<path d="M4096 6168 c-94 -163 -130 -361 -89 -488 21 -65 89 -142 145 -165 60
-24 155 -21 217 6 47 20 111 77 111 99 0 5 -22 38 -48 73 -68 90 -152 228
-234 384 -38 73 -71 133 -73 133 -2 0 -15 -19 -29 -42z"/>
<path d="M11929 7856 c-69 -18 -104 -49 -141 -124 l-33 -67 -3 -975 c-2 -704
0 -992 8 -1035 29 -147 107 -215 247 -215 84 0 138 23 181 76 70 84 66 34 70
1099 3 994 1 1048 -38 1125 -30 58 -90 106 -149 119 -63 13 -83 13 -142 -3z"/>
</g>
</svg>
